<svg width="29" height="26" viewBox="0 0 29 26" fill="none" xmlns="http://www.w3.org/2000/svg">
  <path d="M6.48103 14.0833H19.5819L13.8584 19.37C13.4009 19.7925 13.4009 20.4858 13.8584 20.9083C14.3158 21.3308 15.0547 21.3308 15.5121 20.9083L23.2413 13.7692C23.6987 13.3467 23.6987 12.6642 23.2413 12.2417L15.5238 5.09167C15.3047 4.88881 15.0072 4.77481 14.6969 4.77481C14.3867 4.77481 14.0892 4.88881 13.8701 5.09167C13.4127 5.51417 13.4127 6.19667 13.8701 6.61917L19.5819 11.9167H6.48103C5.83596 11.9167 5.30817 12.4042 5.30817 13C5.30817 13.5958 5.83596 14.0833 6.48103 14.0833Z" fill="#37474F" />
  <mask id="mask0_12328_48" style="mask-type:luminance" maskUnits="userSpaceOnUse" x="5" y="4" width="19" height="18">
    <path d="M6.48103 14.0833H19.5819L13.8584 19.37C13.4009 19.7925 13.4009 20.4858 13.8584 20.9083C14.3158 21.3308 15.0547 21.3308 15.5121 20.9083L23.2413 13.7692C23.6987 13.3467 23.6987 12.6642 23.2413 12.2417L15.5238 5.09167C15.3047 4.88881 15.0072 4.77481 14.6969 4.77481C14.3867 4.77481 14.0892 4.88881 13.8701 5.09167C13.4127 5.51417 13.4127 6.19667 13.8701 6.61917L19.5819 11.9167H6.48103C5.83596 11.9167 5.30817 12.4042 5.30817 13C5.30817 13.5958 5.83596 14.0833 6.48103 14.0833Z" fill="white" />
  </mask>
  <g mask="url(#mask0_12328_48)">
  </g>
</svg>